<svg id="visual" viewBox="0 0 960 540" width="960" height="540" xmlns="http://www.w3.org/2000/svg" xmlns:xlink="http://www.w3.org/1999/xlink" version="1.1"><g stroke-width="1" stroke-linejoin="bevel"><path d="M537.3 295L524.3 375L614 332Z" fill="#00212c" stroke="#00212c"></path><path d="M614 332L612 250L537.3 295Z" fill="#031d24" stroke="#031d24"></path><path d="M524.3 375L652 430L614 332Z" fill="#021315" stroke="#021315"></path><path d="M548.3 462L652 430L524.3 375Z" fill="#002d47" stroke="#002d47"></path><path d="M614 332L782.7 295L612 250Z" fill="#002d47" stroke="#002d47"></path><path d="M399.7 232L429.7 346L537.3 295Z" fill="#002535" stroke="#002535"></path><path d="M537.3 295L429.7 346L524.3 375Z" fill="#021315" stroke="#021315"></path><path d="M524.3 375L448.7 410L548.3 462Z" fill="#002d47" stroke="#002d47"></path><path d="M429.7 346L448.7 410L524.3 375Z" fill="#031d24" stroke="#031d24"></path><path d="M721.7 159L613 201L612 250Z" fill="#043459" stroke="#043459"></path><path d="M612 250L613 201L537.3 295Z" fill="#031d24" stroke="#031d24"></path><path d="M613 201L494.3 161L537.3 295Z" fill="#031d24" stroke="#031d24"></path><path d="M652 430L749.7 393L614 332Z" fill="#021315" stroke="#021315"></path><path d="M494.3 161L399.7 232L537.3 295Z" fill="#020c0d" stroke="#020c0d"></path><path d="M430.7 540L531.3 540L548.3 462Z" fill="#03181c" stroke="#03181c"></path><path d="M548.3 462L664 540L652 430Z" fill="#021315" stroke="#021315"></path><path d="M652 430L721.7 487L749.7 393Z" fill="#020c0d" stroke="#020c0d"></path><path d="M664 540L721.7 487L652 430Z" fill="#002d47" stroke="#002d47"></path><path d="M544.3 100L458.7 143L494.3 161Z" fill="#03181c" stroke="#03181c"></path><path d="M494.3 161L458.7 143L399.7 232Z" fill="#002d47" stroke="#002d47"></path><path d="M531.3 540L664 540L548.3 462Z" fill="#010303" stroke="#010303"></path><path d="M886.3 329L782.7 295L749.7 393Z" fill="#031d24" stroke="#031d24"></path><path d="M749.7 393L782.7 295L614 332Z" fill="#021315" stroke="#021315"></path><path d="M304 161L357 241L399.7 232Z" fill="#00212c" stroke="#00212c"></path><path d="M399.7 232L357 241L429.7 346Z" fill="#043459" stroke="#043459"></path><path d="M340 471L430.7 540L448.7 410Z" fill="#031d24" stroke="#031d24"></path><path d="M448.7 410L430.7 540L548.3 462Z" fill="#03181c" stroke="#03181c"></path><path d="M340 471L448.7 410L429.7 346Z" fill="#043459" stroke="#043459"></path><path d="M633 61L544.3 100L613 201Z" fill="#021315" stroke="#021315"></path><path d="M613 201L544.3 100L494.3 161Z" fill="#031d24" stroke="#031d24"></path><path d="M782.7 295L721.7 159L612 250Z" fill="#00293e" stroke="#00293e"></path><path d="M664 540L708.7 540L721.7 487Z" fill="#002d47" stroke="#002d47"></path><path d="M721.7 487L840.3 457L749.7 393Z" fill="#00293e" stroke="#00293e"></path><path d="M282 363L340 471L429.7 346Z" fill="#003150" stroke="#003150"></path><path d="M357 241L282 363L429.7 346Z" fill="#00212c" stroke="#00212c"></path><path d="M721.7 159L633 61L613 201Z" fill="#020c0d" stroke="#020c0d"></path><path d="M854.3 540L840.3 457L721.7 487Z" fill="#00293e" stroke="#00293e"></path><path d="M340 471L321 540L430.7 540Z" fill="#020c0d" stroke="#020c0d"></path><path d="M225.3 540L321 540L340 471Z" fill="#002535" stroke="#002535"></path><path d="M544.3 100L405.7 68L458.7 143Z" fill="#03181c" stroke="#03181c"></path><path d="M458.7 143L304 161L399.7 232Z" fill="#020c0d" stroke="#020c0d"></path><path d="M357 241L189.3 281L282 363Z" fill="#003150" stroke="#003150"></path><path d="M441.7 0L405.7 68L544.3 100Z" fill="#002d47" stroke="#002d47"></path><path d="M405.7 68L304 161L458.7 143Z" fill="#003150" stroke="#003150"></path><path d="M860.3 171L758.7 93L721.7 159Z" fill="#03181c" stroke="#03181c"></path><path d="M721.7 159L758.7 93L633 61Z" fill="#031d24" stroke="#031d24"></path><path d="M860.3 171L721.7 159L782.7 295Z" fill="#010303" stroke="#010303"></path><path d="M840.3 457L886.3 329L749.7 393Z" fill="#03181c" stroke="#03181c"></path><path d="M886.3 329L892.3 297L782.7 295Z" fill="#010303" stroke="#010303"></path><path d="M677 0L541.3 0L633 61Z" fill="#020c0d" stroke="#020c0d"></path><path d="M633 61L541.3 0L544.3 100Z" fill="#00293e" stroke="#00293e"></path><path d="M892.3 297L860.3 171L782.7 295Z" fill="#00293e" stroke="#00293e"></path><path d="M708.7 540L854.3 540L721.7 487Z" fill="#031d24" stroke="#031d24"></path><path d="M840.3 457L960 397L886.3 329Z" fill="#003150" stroke="#003150"></path><path d="M886.3 329L960 272L892.3 297Z" fill="#003150" stroke="#003150"></path><path d="M302 0L321 77L405.7 68Z" fill="#00293e" stroke="#00293e"></path><path d="M405.7 68L321 77L304 161Z" fill="#00293e" stroke="#00293e"></path><path d="M758.7 93L677 0L633 61Z" fill="#00212c" stroke="#00212c"></path><path d="M749.7 0L677 0L758.7 93Z" fill="#003150" stroke="#003150"></path><path d="M541.3 0L441.7 0L544.3 100Z" fill="#00212c" stroke="#00212c"></path><path d="M189.3 281L201.3 375L282 363Z" fill="#003150" stroke="#003150"></path><path d="M282 363L186.3 439L340 471Z" fill="#00212c" stroke="#00212c"></path><path d="M189.3 281L357 241L304 161Z" fill="#043459" stroke="#043459"></path><path d="M173.3 172L189.3 281L304 161Z" fill="#031d24" stroke="#031d24"></path><path d="M870.3 76L749.7 0L758.7 93Z" fill="#043459" stroke="#043459"></path><path d="M141.7 481L186.3 439L118.7 373Z" fill="#010303" stroke="#010303"></path><path d="M201.3 375L186.3 439L282 363Z" fill="#03181c" stroke="#03181c"></path><path d="M186.3 439L225.3 540L340 471Z" fill="#021315" stroke="#021315"></path><path d="M960 411L960 397L840.3 457Z" fill="#00212c" stroke="#00212c"></path><path d="M892.3 297L960 205L860.3 171Z" fill="#002535" stroke="#002535"></path><path d="M960 397L960 272L886.3 329Z" fill="#00293e" stroke="#00293e"></path><path d="M860.3 171L870.3 76L758.7 93Z" fill="#043459" stroke="#043459"></path><path d="M960 540L960 411L840.3 457Z" fill="#03181c" stroke="#03181c"></path><path d="M960 82L870.3 76L860.3 171Z" fill="#002535" stroke="#002535"></path><path d="M960 272L960 205L892.3 297Z" fill="#021315" stroke="#021315"></path><path d="M224.3 82L173.3 172L304 161Z" fill="#00212c" stroke="#00212c"></path><path d="M118.7 373L186.3 439L201.3 375Z" fill="#00212c" stroke="#00212c"></path><path d="M321 77L224.3 82L304 161Z" fill="#00212c" stroke="#00212c"></path><path d="M302 0L224.3 82L321 77Z" fill="#002535" stroke="#002535"></path><path d="M441.7 0L302 0L405.7 68Z" fill="#002535" stroke="#002535"></path><path d="M118.7 373L201.3 375L189.3 281Z" fill="#003150" stroke="#003150"></path><path d="M186.3 439L141.7 481L225.3 540Z" fill="#00212c" stroke="#00212c"></path><path d="M854.3 540L960 540L840.3 457Z" fill="#002d47" stroke="#002d47"></path><path d="M105.7 271L118.7 373L189.3 281Z" fill="#021315" stroke="#021315"></path><path d="M92.7 182L105.7 271L173.3 172Z" fill="#031d24" stroke="#031d24"></path><path d="M173.3 172L105.7 271L189.3 281Z" fill="#021315" stroke="#021315"></path><path d="M960 82L890.3 0L870.3 76Z" fill="#002535" stroke="#002535"></path><path d="M870.3 76L890.3 0L749.7 0Z" fill="#031d24" stroke="#031d24"></path><path d="M302 0L234.3 0L224.3 82Z" fill="#031d24" stroke="#031d24"></path><path d="M99.7 94L92.7 182L173.3 172Z" fill="#00212c" stroke="#00212c"></path><path d="M960 205L960 82L860.3 171Z" fill="#010303" stroke="#010303"></path><path d="M0 446L141.7 481L118.7 373Z" fill="#002535" stroke="#002535"></path><path d="M0 446L117.7 540L141.7 481Z" fill="#010303" stroke="#010303"></path><path d="M141.7 481L117.7 540L225.3 540Z" fill="#003150" stroke="#003150"></path><path d="M99.7 94L173.3 172L224.3 82Z" fill="#002535" stroke="#002535"></path><path d="M105.7 271L0 388L118.7 373Z" fill="#020c0d" stroke="#020c0d"></path><path d="M960 82L960 0L890.3 0Z" fill="#043459" stroke="#043459"></path><path d="M141.7 0L99.7 94L224.3 82Z" fill="#010303" stroke="#010303"></path><path d="M234.3 0L141.7 0L224.3 82Z" fill="#002d47" stroke="#002d47"></path><path d="M0 263L0 388L105.7 271Z" fill="#031d24" stroke="#031d24"></path><path d="M0 263L105.7 271L92.7 182Z" fill="#031d24" stroke="#031d24"></path><path d="M0 201L92.7 182L0 103Z" fill="#043459" stroke="#043459"></path><path d="M0 201L0 263L92.7 182Z" fill="#020c0d" stroke="#020c0d"></path><path d="M0 388L0 446L118.7 373Z" fill="#00212c" stroke="#00212c"></path><path d="M0 103L92.7 182L99.7 94Z" fill="#002535" stroke="#002535"></path><path d="M0 446L0 540L117.7 540Z" fill="#00293e" stroke="#00293e"></path><path d="M0 0L0 103L99.7 94Z" fill="#020c0d" stroke="#020c0d"></path><path d="M141.7 0L0 0L99.7 94Z" fill="#03181c" stroke="#03181c"></path></g></svg>